<?xml version="1.0" encoding="UTF-8"?>
<svg width="169px" height="32px" viewBox="0 0 169 32" version="1.1" xmlns="http://www.w3.org/2000/svg" xmlns:xlink="http://www.w3.org/1999/xlink">
    <!-- Generator: Sketch 54.1 (76490) - https://sketchapp.com -->
    <title>pp_logo--positive</title>
    <desc>Created with Sketch.</desc>
    <defs>
        <linearGradient x1="50%" y1="0%" x2="50%" y2="100%" id="linearGradient-1">
            <stop stop-color="#008257" offset="0%"></stop>
            <stop stop-color="#00D790" offset="100%"></stop>
        </linearGradient>
    </defs>
    <g id="Page-1" stroke="none" stroke-width="1" fill="none" fill-rule="evenodd">
        <g id="PRM_PeterPark-Landingpage_About" transform="translate(-232.000000, -50.000000)">
            <g id="pp_logo--positive" transform="translate(232.000000, 50.408447)">
                <path d="M52.984,14.1195527 C55.864,14.1195527 58.48,16.3755527 58.48,19.9755527 C58.48,23.5755527 55.864,25.8075527 52.984,25.8075527 C51.712,25.8075527 50.176,25.3275527 49.384,24.1995527 L49.384,31.0875527 L46.24,31.0875527 L46.24,14.4075527 L49.384,14.4075527 L49.384,15.7515527 C50.176,14.6235527 51.712,14.1195527 52.984,14.1195527 Z M52.384,22.8555527 C53.968,22.8555527 55.264,21.6315527 55.264,19.9755527 C55.264,18.3435527 53.968,17.0715527 52.384,17.0715527 C50.848,17.0715527 49.48,18.2715527 49.48,19.9755527 C49.48,21.7035527 50.92,22.8555527 52.384,22.8555527 Z M72.064,19.8075527 C72.064,20.1195527 72.04,20.5035527 72.016,21.0075527 L63.568,21.0075527 C63.904,22.3035527 64.96,23.0235527 66.472,23.0235527 C67.6,23.0235527 68.728,22.5675527 69.4,21.7755527 L71.248,23.6235527 C70.192,25.0395527 68.224,25.8075527 66.256,25.8075527 C62.824,25.8075527 60.304,23.4555527 60.304,19.9995527 C60.304,16.3755527 63.04,14.1195527 66.256,14.1195527 C69.448,14.1195527 72.064,16.3755527 72.064,19.8075527 Z M63.568,18.9675527 L68.92,18.9675527 C68.824,17.6475527 67.72,16.8555527 66.304,16.8555527 C65.032,16.8555527 63.904,17.4555527 63.568,18.9675527 Z M80.92,14.4075527 L80.92,16.8315527 L78.544,16.8315527 L78.544,25.5915527 L75.4,25.5915527 L75.4,16.8315527 L73.36,16.8315527 L73.36,14.4075527 L75.4,14.4075527 L75.4,10.3035527 L78.544,10.3035527 L78.544,14.4075527 L80.92,14.4075527 Z M93.832,19.8075527 C93.832,20.1195527 93.808,20.5035527 93.784,21.0075527 L85.336,21.0075527 C85.672,22.3035527 86.728,23.0235527 88.24,23.0235527 C89.368,23.0235527 90.496,22.5675527 91.168,21.7755527 L93.016,23.6235527 C91.96,25.0395527 89.992,25.8075527 88.024,25.8075527 C84.592,25.8075527 82.072,23.4555527 82.072,19.9995527 C82.072,16.3755527 84.808,14.1195527 88.024,14.1195527 C91.216,14.1195527 93.832,16.3755527 93.832,19.8075527 Z M85.336,18.9675527 L90.688,18.9675527 C90.592,17.6475527 89.488,16.8555527 88.072,16.8555527 C86.8,16.8555527 85.672,17.4555527 85.336,18.9675527 Z M102.664,14.1195527 C103.264,14.1195527 103.936,14.2155527 104.44,14.4795527 L103.72,17.4795527 C103.048,17.1195527 102.496,17.0715527 102.112,17.0715527 C100.504,17.0715527 99.4,18.5595527 99.4,21.7515527 L99.4,25.5915527 L96.256,25.5915527 L96.256,14.4075527 L99.376,14.4075527 L99.376,16.7835527 C100,14.9115527 101.272,14.1195527 102.664,14.1195527 Z M117.976,14.1195527 C120.856,14.1195527 123.472,16.3755527 123.472,19.9755527 C123.472,23.5755527 120.856,25.8075527 117.976,25.8075527 C116.704,25.8075527 115.168,25.3275527 114.376,24.1995527 L114.376,31.0875527 L111.232,31.0875527 L111.232,14.4075527 L114.376,14.4075527 L114.376,15.7515527 C115.168,14.6235527 116.704,14.1195527 117.976,14.1195527 Z M117.376,22.8555527 C118.96,22.8555527 120.256,21.6315527 120.256,19.9755527 C120.256,18.3435527 118.96,17.0715527 117.376,17.0715527 C115.84,17.0715527 114.472,18.2715527 114.472,19.9755527 C114.472,21.7035527 115.912,22.8555527 117.376,22.8555527 Z M134.392,14.4075527 L137.536,14.4075527 L137.536,25.5915527 L134.392,25.5915527 L134.392,24.1995527 C133.6,25.3035527 132.04,25.8075527 130.792,25.8075527 C127.912,25.8075527 125.296,23.5755527 125.296,19.9755527 C125.296,16.3755527 127.912,14.1435527 130.792,14.1435527 C132.088,14.1435527 133.6,14.6235527 134.392,15.7515527 L134.392,14.4075527 Z M131.392,22.8795527 C132.928,22.8795527 134.296,21.6795527 134.296,19.9755527 C134.296,18.2475527 132.856,17.0955527 131.392,17.0955527 C129.808,17.0955527 128.488,18.3195527 128.488,19.9755527 C128.488,21.6075527 129.808,22.8795527 131.392,22.8795527 Z M147.112,14.1195527 C147.712,14.1195527 148.384,14.2155527 148.888,14.4795527 L148.168,17.4795527 C147.496,17.1195527 146.944,17.0715527 146.56,17.0715527 C144.952,17.0715527 143.848,18.5595527 143.848,21.7515527 L143.848,25.5915527 L140.704,25.5915527 L140.704,14.4075527 L143.824,14.4075527 L143.824,16.7835527 C144.448,14.9115527 145.72,14.1195527 147.112,14.1195527 Z M161.584,25.5915527 L157.672,25.5915527 L153.736,20.7435527 L153.736,25.5915527 L150.592,25.5915527 L150.592,8.43155267 L153.736,8.43155267 L153.736,17.8155527 L156.568,14.4075527 L160.6,14.4075527 L156.232,19.3275527 L161.584,25.5915527 Z" id="peterpark" fill="#00D790" fill-rule="nonzero"></path>
                <path d="M26.37284,9.94932827 L11.8618732,9.94932827 L12.5800788,7.81306798 C13.2317415,5.88561509 15.0421705,4.58687897 17.0751743,4.58687897 L26.5219881,4.58687897 C28.1488501,4.58687897 29.4429971,6.04394157 29.1676467,7.72128451 C28.9496609,9.04067191 27.7082895,9.94932827 26.37284,9.94932827 L26.37284,9.94932827 Z M18.4840506,17.6683182 C18.2683595,18.9877056 17.026988,19.8986565 15.6915385,19.8986565 L8.50489273,19.8986565 L9.25292802,17.6774965 C9.88623397,15.8005246 11.646182,14.5362072 13.628705,14.5362072 L15.8406867,14.5362072 C17.4675487,14.5362072 18.7639902,15.9932698 18.4840506,17.6683182 L18.4840506,17.6683182 Z M6.95604666,24.4855355 L15.3381722,24.4855355 C19.0232785,24.4855355 22.4307399,21.9683738 23.0204487,18.3314538 C23.240729,16.975353 23.0433946,15.6880898 22.5844772,14.5362072 L26.1984514,14.5362072 C29.7344096,14.5362072 32.997312,12.1567208 33.658153,8.68271637 C34.5369797,4.05912401 30.9964323,0 26.5219881,0 L15.1729619,0 C12.307023,0 9.7600317,1.82878566 8.84219699,4.54557641 L2.11446855,24.4855355 L0.0126270657,30.7176332 C-0.0607997112,30.9310298 0.203077768,31.09624 0.363698843,30.9356189 L6.95604666,24.4855355 Z" id="Fill-1" fill="#00D790"></path>
                <path d="M13.5264348,14.5376301 L13.5264348,14.5362072 L13.641565,14.5362072 C13.6031023,14.5362072 13.5647234,14.5366831 13.5264348,14.5376301 Z M15.8535467,14.5362072 L26.2113114,14.5362072 L22.5973372,14.5362072 C22.9286262,15.3677425 23.1235968,16.2698286 23.1235501,17.2174319 L18.5351109,17.2174319 C18.5381904,15.740179 17.3323819,14.5362072 15.8535467,14.5362072 Z" id="Combined-Shape" fill="url(#linearGradient-1)" opacity="0.447009859"></path>
                <path d="M13.5264348,14.5376301 L13.5264348,14.5362072 L13.641565,14.5362072 C13.6031023,14.5362072 13.5647234,14.5366831 13.5264348,14.5376301 Z M15.8535467,14.5362072 L26.2113114,14.5362072 L22.5973372,14.5362072 C22.9286262,15.3677425 23.1235968,16.2698286 23.1235501,17.2174319 L18.5351109,17.2174319 C18.5381904,15.740179 17.3323819,14.5362072 15.8535467,14.5362072 Z" id="Combined-Shape" fill="url(#linearGradient-1)" opacity="0.447009859"></path>
                <path d="M13.5264348,14.5376301 L13.5264348,14.5362072 L13.641565,14.5362072 C13.6031023,14.5362072 13.5647234,14.5366831 13.5264348,14.5376301 Z M15.8535467,14.5362072 L26.2113114,14.5362072 L22.5973372,14.5362072 C22.9286262,15.3677425 23.1235968,16.2698286 23.1235501,17.2174319 L18.5351109,17.2174319 C18.5381904,15.740179 17.3323819,14.5362072 15.8535467,14.5362072 Z" id="Combined-Shape" fill="url(#linearGradient-1)" opacity="0.447009859"></path>
                <path d="M165.43,1.23698753 C167.38,1.23698753 168.93,2.82698753 168.93,4.77698753 C168.93,6.72698753 167.38,8.30698753 165.43,8.30698753 C163.48,8.30698753 161.94,6.72698753 161.94,4.77698753 C161.94,2.82698753 163.48,1.23698753 165.43,1.23698753 Z M165.43,7.68698753 C167.04,7.68698753 168.31,6.38698753 168.31,4.77698753 C168.31,3.16698753 167.04,1.85698753 165.43,1.85698753 C163.83,1.85698753 162.55,3.16698753 162.55,4.77698753 C162.55,6.38698753 163.83,7.68698753 165.43,7.68698753 Z M166.76,4.19698753 C166.76,4.85698753 166.48,5.19698753 165.99,5.30698753 L166.86,6.52698753 L166.04,6.52698753 L165.22,5.35698753 L164.97,5.35698753 L164.97,6.52698753 L164.24,6.52698753 L164.24,3.08698753 L165.61,3.08698753 C166.39,3.08698753 166.76,3.62698753 166.76,4.19698753 Z M164.97,3.75698753 L164.97,4.74698753 L165.53,4.74698753 C165.9,4.74698753 166.04,4.46698753 166.04,4.24698753 C166.04,4.02698753 165.9,3.75698753 165.54,3.75698753 L164.97,3.75698753 Z" id="®" fill="#00D790" fill-rule="nonzero"></path>
            </g>
        </g>
    </g>
</svg>